# xmcd
#
# Track frame offsets: 
#        150
#        25688
#        46607
#        67705
#        88841
#        108598
#        127910
#        150402
#        177481
#        197099
#        211186
#        241286
#        260974
#
# Disc length: 3678 seconds
#
# Revision: 0
# Processed by: cddbd v1.5.2PL0 Copyright (c) Steve Scherf et al.
# Submitted via: ExactAudioCopy v0.95a5
#
DISCID=a70e5c0d
DTITLE=Prado Blues Band - Blues and Swing
DYEAR=2005
DGENRE=Blues
TTITLE0=At The Party!
TTITLE1=Bye Bye Baby
TTITLE2=Vicky
TTITLE3=PB Boogie
TTITLE4=Honeysuckle Rosie
TTITLE5=Those Lonely Nights
TTITLE6=Little Boy
TTITLE7=Everynight And Everyday
TTITLE8=I´ve Had My Fun
TTITLE9=Blues For Motther Alice
TTITLE10=Goodbye Goodbye Blues
TTITLE11=They Call Me Little Devil
TTITLE12=Jamming With Crivellaro
EXTD=
EXTT0=
EXTT1=
EXTT2=
EXTT3=
EXTT4=
EXTT5=
EXTT6=
EXTT7=
EXTT8=
EXTT9=
EXTT10=
EXTT11=
EXTT12=
PLAYORDER=
